<?xml version="1.0" encoding="utf-8"?>
<!-- Generator: Adobe Illustrator 24.0.0, SVG Export Plug-In . SVG Version: 6.00 Build 0)  -->
<svg version="1.1" id="Capa_1" xmlns="http://www.w3.org/2000/svg" xmlns:xlink="http://www.w3.org/1999/xlink" x="0px" y="0px"
	 viewBox="0 0 1000 1000" style="enable-background:new 0 0 1000 1000;" xml:space="preserve">
<style type="text/css">
	.st0{fill:#FFFFFF;}
	.st1{fill:#6AAAE4;}
	.st2{fill:#201747;}
	.st3{fill:#C1D7F1;}
	.st4{fill:none;stroke:#1D1D1B;stroke-width:4.4952;stroke-linecap:round;stroke-linejoin:round;}
	.st5{fill:none;stroke:#1D1D1B;stroke-width:4.7047;stroke-linecap:round;stroke-linejoin:round;}
	.st6{fill:#1D1D1B;}
</style>
<circle class="st0" cx="500" cy="500" r="500"/>
<g>
	<path class="st0" d="M698.8,196.5c-59.2-22.5-134.2-5.1-174.7,40.5c-3,3.3-3.7,4.1-12.2,3.6c-7.9-0.5-15,4.6-16.7,12.1
		c-0.2,1.1-0.4,2.2-0.4,3.4c0,2.8,0.8,5.9,2.8,8.8c-0.4,0-0.7-0.1-1.1-0.1c-1.8,0.1-3.5,0.9-4.8,2.2c-0.2,0.3-23.7,25.9-47.9,65.2
		c-61.1,1.9-169.7,8.6-227.8,32.3c-2.6,1.1-4.3,3.6-4.3,6.4c0,0.6,0.1,1.1,0.2,1.7c0.8,3.3,4,5.5,7.4,5.1
		c15.8-1.8,56.7-5.6,76.9-6.6c-14.2,24.5-37.6,68.9-58.6,113.7c-18.9,40.4-41.3,93-41.3,114.7c0,0.2,0,0.3,0,0.5c0,0,0,0.6,0,0.6
		c0.7,6,6.4,12,17.4,18.3c21.8,12.5,63.1,24.8,83.7,15.5c1.1-0.5,2.1-1.3,2.8-2.3c0-0.1,0.1-0.2,0.2-0.2c0.4,2.2,0.8,4,1.3,5.4
		l0,0.1c2.4,7.1,11.9,11.5,29.2,13.5c13.5,1.5,28.7,1.2,37.7,0.4c25.3-2.2,38.3-8.1,39.8-17.9c0,0,0.1-1.4,0.1-1.4
		c0-0.3-1.8-29-2.9-48.9c7.8,1.1,20.6,2.6,34.7,3.5c-6,21-7.3,29.4-7.3,33.2c0,1.8,0.3,2.5,0.5,3.1c0,0,0.5,1,0.5,1
		c6.8,12.4,31.9,20.1,67.2,20.6c0.7,1.2,1.5,2.4,2.2,3.5l0.1,0.1c2.1,3,6.3,5.9,22.2,4.8c20.6-1.4,63.4-11.2,77.5-38.6
		c0.5-1,0.8-2.1,0.8-3.1c0-0.7-0.1-1.4-0.3-2.1c-1.8-5.5-5.5-12.5-9.8-20.7c-0.2-0.3-0.3-0.7-0.5-1c-3.8-7-8.3-15.7-13-25.6
		c8.1-4.7,23-14.5,36.3-29.6c18.4-20.8,27.6-44.2,27.6-69.6c0-0.5,0-0.9,0-1.4c0.6-0.1,1.2-0.3,1.8-0.4l0.2,0l0.1,0
		c1.3-0.4,31.5-9.6,62-33.8c28.4-22.6,62.2-63.1,62.2-127.4C770.5,251.4,744.4,213.9,698.8,196.5z M664.7,322.4
		c-5,4-11.3,6.8-18.8,8.2c-3.6-11.9-10.8-21.7-18.8-24.9c0,0-0.5-0.2-0.5-0.2c-9.3-2.9-16.8-2-22.1,2.9c-5.3,4.8-6.7,11.9-6.9,17.8
		c-0.1-4.8-1-10.6-4.1-15.2c-3.2-4.9-8.3-7.6-14.3-7.8c-9.9-0.2-21.4,7.6-28.3,19c-1.3-1.1-2.9-1.8-4.7-1.7c-2.4,0.1-4.7,0.2-7,0.4
		c0.7-2.9,1.4-5.7,1.6-6.4c0.8,1.1,2,1.9,3.4,2.1c3,0.6,6-1.4,6.6-4.4c0.6-3.3,8.1-9.9,11.2-11.5c2.8-1.4,3.9-4.7,2.5-7.5
		c-1.4-2.8-4.7-3.9-7.5-2.5c-2,1-7.2,4.6-11.5,9.3c0.9-2.6,1.8-5.2,2.7-7.8c0,0,0.8-2.1,1.2-3.1c5.2,0.6,13.6,0.6,19.6-5.2
		c4.5-4.3,6.3-10.5,5.4-18.5c0,0,0-0.2,0-0.2l0-0.1c-0.7-4,2.7-7.7,5.7-10c6.8-5.4,18.3-9.4,30.6-10.7c13.7-1.5,27.3,0.3,38.3,5
		c12,5.1,26.7,16.3,29.3,41c0,0.2,0,0.5,0,0.9C678.3,296.4,677.2,312.2,664.7,322.4z M425.3,323.1L425.3,323.1
		c13.4,1.7,33.8-13.1,39-22.9c1.1-2,0.8-4.5-0.7-6.2c-1.5-1.7-3.9-2.4-6-1.6c-3.8,1.3-9.8,1.7-15.6,2.1c-10.8,0.7-20.9,1.3-25.7,7.7
		c-1.5,2.1-3.1,5.6-1.9,10.9C415.6,318.7,419.6,322.3,425.3,323.1z M622.1,288.5c-3.1-0.3-5.8,2-6,5.1c-0.3,3.1,2,5.8,5.1,6
		c5.7,0.5,11,3.9,12.9,6.9c1.6,2.6,5.1,3.4,7.7,1.8c2.6-1.6,3.4-5.1,1.8-7.7C639.5,294.1,630.7,289.2,622.1,288.5z M634.2,587.8
		c-6.3,0-11.5,5.1-11.5,11.5c0,6.3,5.1,11.5,11.5,11.5c6.3,0,11.5-5.1,11.5-11.5C645.6,593,640.5,587.8,634.2,587.8z"/>
	<g>
		<path class="st1" d="M529.1,240.7c-4.7,5.3-7.7,6.5-17.8,5.9c-10.1-0.6-15.4,13-1.2,18.9c3.6,1.2,13-1.2,18.4,1.8
			c5.3,3,13,13,20.7,14.2c7.7,1.2,20.1,0,18.4-16c-5.3-32.6,110.1-53.3,117.8,23.7c0.6,16.6-8.3,63.3-85.3,44.4l-9.2-3.6
			c-0.3,4.1-1.2,7.9-2.4,10.7c-10.4,22.8-27.5,20.7-32.3,15.1c-7.2-9.4-5.8-20.6-0.6-29.7l-9.4,0.5c-11.4,0.3-21.5,2.1-30.6,5.2
			l-11.4,4.8c0,0-212.1,0.7-286.6,33.7c10.7-1.2,81.7-8.3,90-6.5c-26.1,41.4-106,198.3-105.4,236.2c1.5,13.4,67,39.5,91.8,28.4
			c0,0,7.1-10.1,9.5-17.2l0.3-0.7c1.2,11.5,2.4,20.5,3.8,25c3.3,10,47.4,12.4,73.9,7.3c-0.6-15.8,2.8-19.1,3.5-23.8
			c0,0,5.8-8.6,14.8-9.9c-0.1-10.2-1.4-24.8-1.8-33.9c0,0,24.9,3.8,51,4.8c0,0-10.9,36.5-9.4,40.7c3.3,5.9,18.9,17.2,65.1,17.2h0.2
			c1.3,2.3,2.6,4.4,4,6.5c3.3,4.7,47,1.9,73-16.5c-3.8-7.2-7.1-15.8-5.8-23.8c1.4-8,11.1-13.4,11.1-13.4s-10.3-19.4-16-32.1l0.4-0.1
			c15.4-7.7,68.7-41.4,65.7-101.2l0-2.2c2.2-0.3,4.6-0.7,7.1-1.4c0,0,119.6-35.5,119.6-155.1C764.1,179.1,598.9,162,529.1,240.7z
			 M439.9,495.8c-18.6,0.7,2.9-44,6.1-48.6C445.5,465.1,458.5,495.1,439.9,495.8z"/>
	</g>
	<g>
		<path class="st2" d="M220,712.1v11.4h20v15h-20v11.8H241v15h-38.8V697H241v15H220z"/>
		<path class="st2" d="M268.1,765.2h-16.5v-75.1h16.5V765.2z"/>
		<path class="st2" d="M326.6,744.8H292c0,3.4,0.9,5.9,2.6,7.7c1.7,1.8,4.3,2.6,7.7,2.6c1.7,0,3.3-0.3,4.6-1
			c1.3-0.6,2.4-1.7,3.3-3.3H326c-0.7,2.7-1.8,5.1-3.3,7.1c-1.5,2-3.4,3.7-5.5,5c-2.1,1.3-4.5,2.3-7,2.9c-2.5,0.6-5.1,1-7.8,1
			c-3.9,0-7.4-0.5-10.7-1.6c-3.3-1.1-6.1-2.7-8.5-4.7c-2.4-2.1-4.3-4.7-5.7-7.7c-1.4-3.1-2-6.6-2-10.6c0-3.9,0.6-7.3,1.9-10.4
			c1.3-3.1,3-5.7,5.3-7.8c2.3-2.1,5-3.7,8.1-4.9c3.1-1.1,6.6-1.7,10.4-1.7c4,0,7.6,0.6,10.8,1.8c3.1,1.2,5.8,2.9,8,5.2
			c2.2,2.2,3.8,4.9,5,8.1c1.1,3.2,1.7,6.7,1.7,10.7V744.8z M311.3,735.3c-0.4-2.2-1.5-4-3.3-5.3c-1.8-1.3-3.8-2-6-2
			c-2.4,0-4.5,0.6-6.3,1.9c-1.8,1.2-3,3.1-3.4,5.5H311.3z"/>
		<path class="st2" d="M352.2,765.2h-16.5v-32.8h-5.8v-13.6h5.8V713c0-1.6,0-3.2,0.1-4.6c0.1-1.4,0.2-2.8,0.5-4.1
			c0.3-1.3,0.8-2.6,1.4-3.8c0.6-1.3,1.5-2.5,2.7-3.8c2-2.4,4.5-4.3,7.3-5.5c2.8-1.3,5.8-1.9,8.9-1.9c1.3,0,2.5,0.1,3.6,0.4
			c1.1,0.2,2.3,0.7,3.4,1.3v14.2c-1-0.4-1.9-0.8-2.8-1.1c-0.9-0.3-1.9-0.5-3-0.5c-2.1,0-3.6,0.6-4.4,1.9c-0.8,1.3-1.3,3.2-1.3,5.9
			v7.5h11.5v13.6h-11.5V765.2z"/>
		<path class="st2" d="M419.9,765.2h-16.5v-5.2h-0.2c-1.4,2.3-3.5,4-6.1,5.1c-2.6,1.1-5.2,1.6-8,1.6c-3.4,0-6.6-0.7-9.5-2
			c-2.9-1.3-5.3-3.1-7.4-5.4c-2.1-2.3-3.7-4.9-4.8-7.9c-1.1-3-1.7-6.2-1.7-9.5c0-3.3,0.6-6.5,1.7-9.5c1.1-3,2.7-5.6,4.7-7.9
			c2-2.3,4.5-4.1,7.3-5.4c2.9-1.3,6-2,9.5-2c2.7,0,5.4,0.5,7.9,1.5c2.6,1,4.7,2.5,6.5,4.6v-4.5h16.5V765.2z M393.4,731.6
			c-1.7,0-3.2,0.3-4.5,0.9c-1.3,0.6-2.4,1.3-3.3,2.3c-0.9,0.9-1.6,2-2.1,3.3c-0.5,1.3-0.7,2.6-0.7,4.1c0,3,0.9,5.4,2.8,7.4
			c1.8,2,4.4,3,7.8,3c3.4,0,6-1,7.8-3c1.8-2,2.8-4.5,2.8-7.4c0-1.4-0.2-2.8-0.7-4.1c-0.5-1.3-1.2-2.4-2.1-3.3
			c-0.9-0.9-2-1.7-3.3-2.3C396.6,731.9,395.1,731.6,393.4,731.6z"/>
		<path class="st2" d="M447.3,724.8h0.2c1.9-2.8,4.1-4.8,6.4-5.9c2.4-1.1,5.2-1.6,8.4-1.6c3.1,0,5.8,0.5,8,1.4
			c2.2,0.9,4,2.2,5.4,3.9c1.4,1.7,2.4,3.7,3.1,6.1c0.6,2.4,1,5,1,7.8v28.7h-16.5v-22.6c0-1.1,0-2.3,0-3.8c0-1.4-0.2-2.8-0.6-4
			c-0.4-1.3-1.1-2.3-2.2-3.2c-1-0.8-2.6-1.3-4.6-1.3c-1.7,0-3.1,0.3-4.2,0.9c-1.1,0.6-2,1.4-2.6,2.4c-0.7,1-1.1,2.1-1.4,3.4
			c-0.3,1.3-0.4,2.7-0.4,4.1v24.1h-16.5v-46.4h16.5V724.8z"/>
		<path class="st2" d="M508.7,765.2h-16.5v-32.8h-5.3v-13.6h5.3v-13.9h16.5v13.9h9.3v13.6h-9.3V765.2z"/>
		<path class="st2" d="M570.9,744.8h-34.6c0,3.4,0.9,5.9,2.6,7.7c1.7,1.8,4.3,2.6,7.7,2.6c1.7,0,3.3-0.3,4.6-1
			c1.3-0.6,2.4-1.7,3.3-3.3h15.8c-0.7,2.7-1.8,5.1-3.3,7.1c-1.5,2-3.4,3.7-5.5,5c-2.1,1.3-4.5,2.3-7,2.9c-2.5,0.6-5.1,1-7.8,1
			c-3.9,0-7.4-0.5-10.7-1.6c-3.3-1.1-6.1-2.7-8.5-4.7c-2.4-2.1-4.3-4.7-5.7-7.7c-1.4-3.1-2-6.6-2-10.6c0-3.9,0.6-7.3,1.9-10.4
			c1.3-3.1,3-5.7,5.3-7.8c2.3-2.1,5-3.7,8.1-4.9c3.1-1.1,6.6-1.7,10.4-1.7c4,0,7.6,0.6,10.8,1.8c3.1,1.2,5.8,2.9,8,5.2
			c2.2,2.2,3.8,4.9,5,8.1c1.1,3.2,1.7,6.7,1.7,10.7V744.8z M555.6,735.3c-0.4-2.2-1.5-4-3.3-5.3c-1.8-1.3-3.8-2-6-2
			c-2.4,0-4.5,0.6-6.3,1.9c-1.8,1.2-3,3.1-3.4,5.5H555.6z"/>
		<path class="st1" d="M629.2,765.2h-16.5v-5.2h-0.2c-1.4,2.3-3.5,4-6.1,5.1c-2.6,1.1-5.2,1.6-8,1.6c-3.4,0-6.6-0.7-9.5-2
			c-2.9-1.3-5.3-3.1-7.4-5.4c-2.1-2.3-3.7-4.9-4.8-7.9c-1.1-3-1.7-6.2-1.7-9.5c0-3.3,0.6-6.5,1.7-9.5c1.1-3,2.7-5.6,4.7-7.9
			c2-2.3,4.5-4.1,7.3-5.4c2.9-1.3,6-2,9.5-2c2.7,0,5.4,0.5,7.9,1.5c2.6,1,4.7,2.5,6.5,4.6v-4.5h16.5V765.2z M602.7,731.6
			c-1.7,0-3.2,0.3-4.5,0.9c-1.3,0.6-2.4,1.3-3.3,2.3c-0.9,0.9-1.6,2-2.1,3.3c-0.5,1.3-0.7,2.6-0.7,4.1c0,3,0.9,5.4,2.8,7.4
			c1.8,2,4.4,3,7.8,3c3.4,0,6-1,7.8-3c1.8-2,2.8-4.5,2.8-7.4c0-1.4-0.2-2.8-0.7-4.1c-0.5-1.3-1.2-2.4-2.1-3.3
			c-0.9-0.9-2-1.7-3.3-2.3C605.8,731.9,604.3,731.6,602.7,731.6z"/>
		<path class="st1" d="M682.4,751.6v13.7h-47l21.8-32.7h-18.9v-13.7h46.3l-21.7,32.7H682.4z"/>
		<path class="st1" d="M706.9,718.8v24.8c0,1.4,0.1,2.8,0.3,4c0.2,1.2,0.6,2.3,1.2,3.2c0.6,0.9,1.4,1.6,2.5,2.1
			c1.1,0.5,2.5,0.7,4.2,0.7c1.7,0,3.1-0.2,4.2-0.7c1.1-0.5,1.9-1.2,2.5-2.1c0.6-0.9,1-2,1.2-3.2c0.2-1.2,0.3-2.6,0.3-4v-24.8h16.5
			v28c0,3.8-0.6,7-1.9,9.5c-1.3,2.6-3,4.6-5.2,6.2c-2.2,1.5-4.8,2.6-7.8,3.3c-3,0.7-6.3,1-9.8,1c-3.5,0-6.7-0.3-9.7-1
			c-3-0.7-5.6-1.8-7.8-3.3c-2.2-1.5-4-3.6-5.2-6.2c-1.3-2.6-1.9-5.7-1.9-9.5v-28H706.9z"/>
		<path class="st1" d="M766.7,765.2h-16.5v-75.1h16.5V765.2z"/>
	</g>
	<g>
		<path class="st3" d="M225.4,368.7c26-4.8,133.8-26,263.2-21.2c4.6-3.8,8.9-8.9,15.8-10.8C483.1,329.7,224.1,351.6,225.4,368.7z"/>
	</g>
	<path class="st3" d="M514,246.5c-6.1,0-6.7,4.9,2.4,4.9c9.2,0,12.8,0,21.4-11c45.9-47.5,154.3-59.8,199.6-0.6
		c45.4,59.2,6.9,153-46.9,191.4c103.8-67.6,73.8-170.6,55.7-193.3c-83.4-90.3-199.9-19.4-211.5-3.5C523.1,250.1,514,246.5,514,246.5
		z"/>
	<path class="st3" d="M659,340.4c-26.3,10-58-4.2-58-4.2s21.8,7.6,47.1,3.2c25.5-4.5,38.7-33.5,38.1-50.3
		C691.1,298.7,689.1,329,659,340.4z"/>
	<path class="st3" d="M455.3,582.9c-3.8,12.3-7.7,30-7.7,33.8c0,3.8,13.1,9.2,16.9,10c-4.6-16.9-1.5-46.1-1.5-46.1L455.3,582.9"/>
	<path class="st3" d="M484.7,566.2c-2.8,1.8,21.9,66.6,29.1,73.1c1.9,1.7,13.4,0.3,14.5-0.1C524.9,639.5,496,599.2,484.7,566.2z"/>
	<path class="st3" d="M305.2,517.6c2.5,32.8,7.4,108.7,12.8,114.1c5.2,3.1,11,4.2,14.2,4.1C324.6,626.7,305.2,517.6,305.2,517.6z"/>
	<path class="st3" d="M298.5,390.4c-43,81.3-89.3,179.1-86.3,210.4c0.6,2.1,6.5,5.5,6.5,5.5C220,578.4,238.8,525.1,298.5,390.4z"/>
	<path class="st4" d="M579.3,309.1c-15.1-0.3-37.9,27.2-22.8,46.8c4.7,5.6,21.9,7.7,32.3-15.1C592.6,331.3,593.8,309.4,579.3,309.1z
		"/>
	<path class="st4" d="M605,334c-1.8-8.6-1.8-29.6,19.8-22.8c6.5,2.7,13.9,13,16.3,25.8"/>
	<path class="st4" d="M398.4,575.2c0,0,50.3,8.3,83.5,4.1"/>
	<path class="st4" d="M449,581c0,0-10.6,35.6-9.2,39.8c3.3,5.9,18.9,17.2,65.1,17.2"/>
	<path class="st4" d="M637.6,457.4c3,59.8-50.3,93.5-65.7,101.2"/>
	<path class="st4" d="M582.5,423.7c0,0,14.8,5.3,32-10.7"/>
	<path class="st4" d="M600.9,421.9c-1.2,13.6,8.3,40.9,43.8,32c0,0,119.6-35.5,119.6-155.1c0-119.6-165.2-136.8-235-58
		c-4.7,5.3-7.7,6.5-17.8,5.9c-10.1-0.6-15.4,13-1.2,18.9c3.6,1.2,13-1.2,18.4,1.8c5.3,3,13,13,20.7,14.2c7.7,1.2,20.1,0,18.4-16
		c-5.3-32.6,110.1-53.3,117.8,23.7c0.6,16.6-8.3,63.3-85.3,44.4"/>
	<path class="st4" d="M546.5,326.7c-11.4,0.3-21.5,2.1-30.6,5.2"/>
	<path class="st4" d="M459.4,297.6c-13.6,4.7-43.2-1.2-39.7,14.2C423.3,327.2,453.5,308.8,459.4,297.6z"/>
	<path class="st4" d="M559.4,295.8c-3.6,1.8-13,9.5-14.2,15.4"/>
	<path class="st4" d="M621.6,294c7.1,0.6,14.2,4.7,17.2,9.5"/>
	<path class="st4" d="M502.2,336.8c-2.8,0-28.2,1-45.1,1.3"/>
	<path class="st4" d="M446.1,338.4c-58,1.7-169.8,8.1-228.2,31.9c10.7-1.2,81.7-8.3,90-6.5c-26.1,41.4-106,198.3-105.4,236.2
		c1.5,13.4,67,39.5,91.8,28.4c0,0,7.1-10.1,9.5-17.2"/>
	<path class="st4" d="M504.4,336.7c-6.8,3.6-11.1,6.5-17.2,11.7c-13.7,11-23.8,23.1-30.2,31.4c-10.7,13.6-1.8,22.5,10.1,23.1
		c11.8,0.6,5.3,15.4,1.8,24.9c-3.6,9.5,2.4,16,16,21.3c13.6,5.3,3,21.9,24.9,28.4c4.1,1.8,17.8-3,17.8-3"/>
	<path class="st4" d="M296.6,472.8c0,0,4.1,139.7,11.2,162.8c4.7,14.2,91.2,13,93.5-3c0,0-3.6-55.7-3.6-66.3
		c5.3-8.3,27.2-8.9,36.1-45.6"/>
	<path class="st4" d="M399.9,610.3c-3.1-0.9-22.2,3-17.8,32.4"/>
	<path class="st4" d="M587.7,591.2c-6.8,2.2-20.9,12.7-5.8,36.4"/>
	<path class="st4" d="M470.6,532.6c0,0,13.6,74,38.5,111.9c4.1,5.9,71,0,88.2-33.2c-4.7-14.8-27.8-46.2-41.4-95.9"/>
	<path class="st5" d="M497.4,271.2c0,0-36.4,39.5-66,96.4"/>
	<path class="st5" d="M537,274.3c-10.7,20.1-27.8,53.9-40.8,96"/>
	<path class="st5" d="M547.8,281.6c-3.5,9-26.7,71.2-32.4,130.2"/>
	<path class="st5" d="M526.6,268.1c-3.7,6.4-16.8,27.2-29.3,48.9"/>
	<path class="st5" d="M512.4,266.5c-13.8,21.9-25.9,41.1-36.6,59.2"/>
	<path class="st6" d="M565.9,336.5c-3.2-1.4-4-6.5-1.8-11.4c2.2-4.9,6.5-7.6,9.7-6.2c3.2,1.4,4,6.5,1.8,11.4
		C573.4,335.2,569.1,338,565.9,336.5z"/>
	<path class="st6" d="M616.9,336.7c-3.4,0.5-6.9-3.3-7.7-8.5c-0.8-5.2,1.3-9.9,4.7-10.5c3.4-0.5,6.9,3.3,7.7,8.5
		C622.4,331.4,620.3,336.1,616.9,336.7z"/>
	<path class="st6" d="M634.2,591.1c4.5,0,8.1,3.5,8.1,8.2c0,4.7-3.6,8.2-8.1,8.2c-4.5,0-8.1-3.5-8.1-8.2
		C626.1,594.6,629.7,591.1,634.2,591.1z M634.2,609.7c5.8,0,10.4-4.6,10.4-10.4c0-5.8-4.6-10.4-10.4-10.4c-5.8,0-10.4,4.6-10.4,10.4
		C623.8,605.1,628.4,609.7,634.2,609.7z M636.3,600.3c1.9-0.1,2.9-1.2,2.9-3.2c0-2.9-1.7-3.3-4.2-3.3h-5.3v10.8h2.3v-4.3h1.9
		l2.5,4.3h2.5L636.3,600.3z M632.1,598.4v-2.6h2.5c1.1,0,2.5,0,2.5,1.2c0,1.2-0.7,1.4-1.9,1.4H632.1z"/>
	<path class="st5" d="M446,447.1c-3.2,4.6-24.7,49.3-6.1,48.6C458.5,495.1,445.5,465.1,446,447.1z"/>
</g>
</svg>
